<?xml version="1.0" encoding="utf-8"?>
<!-- Generator: Adobe Illustrator 19.0.0, SVG Export Plug-In . SVG Version: 6.00 Build 0)  -->
<svg version="1.1" id="レイヤー_1" xmlns="http://www.w3.org/2000/svg" xmlns:xlink="http://www.w3.org/1999/xlink" x="0px"
	 y="0px" viewBox="-192 364.9 280.1 53.1" style="enable-background:new -192 364.9 280.1 53.1;" xml:space="preserve">
<style type="text/css">
	.st0{fill:#F7B740;}
	.st1{fill:#575757;}
</style>
<path id="XMLID_16_" class="st0" d="M-145.1,405.7h-20.4h-20.3c-1.2,0-1.5,1,0,2.6c5,5.8,12.3,9.7,20.4,9.7c8.3,0,15.6-3.7,20.4-9.7
	C-143.7,406.7-143.9,405.7-145.1,405.7"/>
<path id="XMLID_15_" class="st0" d="M-165.5,364.9c-14.6,0-26.5,11.9-26.5,26.5c0,6.2,6.2,6.2,6.2,6.2h40.7c0,0,6.2,0,6.2-6.2
	C-139,376.8-150.8,364.9-165.5,364.9"/>
<path id="XMLID_14_" class="st1" d="M-6,406.9c-0.9,0-1.5-0.7-1.5-1.5v-13.6c0-0.9,0.7-1.5,1.5-1.5h9.9c3.1,0,5.6-2.5,5.6-5.6
	s-2.5-5.6-5.6-5.6H-7.6c-0.9,0-1.5-0.7-1.5-1.5c0-0.9,0.7-1.5,1.5-1.5H3.9c4.8,0,8.7,3.8,8.7,8.7s-3.8,8.7-8.7,8.7h-8.4v12
	C-4.4,406.2-5,406.9-6,406.9"/>
<path id="XMLID_13_" class="st1" d="M-23.7,406.9c-5.9,0-10.8-4.8-10.8-10.8v-18.6c0-0.9,0.7-1.5,1.5-1.5c0.9,0,1.5,0.7,1.5,1.5
	v18.6c0,4.2,3.5,7.7,7.7,7.7s7.7-3.5,7.7-7.7v-18.6c0-0.9,0.7-1.5,1.5-1.5c0.9,0,1.5,0.7,1.5,1.5v18.6
	C-13,402-17.7,406.9-23.7,406.9"/>
<path id="XMLID_12_" class="st1" d="M-99.7,404.3l-10.5-11h2.1c4.8,0,8.7-3.8,8.7-8.7s-3.8-8.7-8.7-8.7h-11.5
	c-0.9,0-1.5,0.7-1.5,1.5c0,0.9,0.7,1.5,1.5,1.5h11.5c3.1,0,5.6,2.5,5.6,5.6c0,3.1-2.5,5.6-5.6,5.6h-9.9c-0.9,0-1.5,0.7-1.5,1.5v13.6
	c0,0.9,0.7,1.5,1.5,1.5c0.9,0,1.5-0.7,1.5-1.5v-12h2.1l12.5,13.1c0.2,0.4,0.7,0.5,1.1,0.5c0.4,0,0.7-0.1,1-0.4
	C-99.2,405.9-99.2,404.9-99.7,404.3"/>
<path id="XMLID_11_" class="st1" d="M-81.1,406.9c-1.9,0-3.5-0.5-4.8-1.7c-0.7-0.5-0.7-1.5-0.2-2.1c0.5-0.7,1.5-0.7,2.2-0.2
	c0.9,0.7,1.7,1,3,1c2.4,0,3.7-1.7,3.7-3.5c0-1.4-0.5-2.8-3.7-4.1c-1.2-0.5-5.3-2.1-5.3-6.1c0-2.7,2.4-5.7,6.2-5.7c4,0,6.1,2.8,6.2,3
	c0.5,0.7,0.4,1.6-0.4,2.1c-0.7,0.5-1.6,0.4-2.1-0.4c-0.1-0.1-1.4-1.7-3.7-1.7c-1.9,0-3.1,1.4-3.1,2.6c0,0.5,0,1.9,3.3,3.2
	c2.5,1,5.7,2.7,5.7,6.9C-74.4,403.5-76.9,406.9-81.1,406.9"/>
<path id="XMLID_8_" class="st1" d="M-59.1,406.9c-5.9,0-10.9-5.1-10.9-11.1c0-6.1,5-11.1,10.9-11.1c5.6,0,10.3,4.3,10.9,9.9
	c0.1,0.4-0.1,0.9-0.4,1.1c-0.2,0.4-0.7,0.5-1.1,0.5H-67c0.2,4.3,3.6,7.7,7.8,7.7c3.1,0,5.9-1.9,7.2-4.8c0.4-0.7,1.2-1.1,2-0.9
	c0.7,0.4,1.1,1.2,0.9,2C-50.9,404.3-54.9,406.9-59.1,406.9 M-66.5,393.1h14.7c-1-3.2-4-5.6-7.4-5.6S-65.5,389.9-66.5,393.1"/>
<path id="XMLID_7_" class="st1" d="M-93,384.6c-0.9,0-1.5,0.7-1.5,1.5v19.3c0,0.9,0.7,1.5,1.5,1.5c0.9,0,1.5-0.7,1.5-1.5v-19.3
	C-91.5,385.2-92.1,384.6-93,384.6"/>
<path id="XMLID_6_" class="st1" d="M-93,376c-1.5,0-2.6,1.1-2.6,2.6s1.1,2.6,2.6,2.6c1.5,0,2.6-1.1,2.6-2.6S-91.6,376-93,376"/>
<path id="XMLID_5_" class="st1" d="M28.1,406.9c-0.9,0-1.5-0.7-1.5-1.5v-27.8c0-0.9,0.7-1.5,1.5-1.5c0.9,0,1.5,0.7,1.5,1.5v27.8
	C29.7,406.2,28.9,406.9,28.1,406.9"/>
<path id="XMLID_4_" class="st1" d="M43.9,384.6c-2.8,0-5.4,1.1-7.3,3.1v-2.5c0-0.9-0.7-1.5-1.5-1.5c-0.9,0-1.5,0.7-1.5,1.5v9.8v3.8
	v6.6c0,0.9,0.7,1.5,1.5,1.5c0.9,0,1.5-0.7,1.5-1.5v-6.6V395c0-4.1,3.2-7.3,7.3-7.3s7.3,3.2,7.3,7.3v10.4c0,0.9,0.7,1.5,1.5,1.5
	c0.9,0,1.5-0.7,1.5-1.5V395C54.4,389.2,49.7,384.6,43.9,384.6"/>
<path id="XMLID_3_" class="st1" d="M88.1,404.3c0,1.5-1.1,2.6-2.6,2.6c-1.5,0-2.6-1.1-2.6-2.6c0-1.5,1.1-2.6,2.6-2.6
	C86.9,401.8,88.1,402.9,88.1,404.3"/>
<path id="XMLID_2_" class="st1" d="M77.3,400.7c-0.7-0.5-1.6-0.4-2.1,0.2l0,0c-1.5,1.9-3.7,3-5.9,3c-4.2,0-7.6-3.5-7.8-7.7
	c-0.1-1.7,0.4-3.1,0.4-3.1c1-3.2,4-5.6,7.4-5.6c2.2,0,4.2,1,5.7,2.5l0,0c0.5,0.6,1.6,0.7,2.2,0.1c0.5-0.5,0.6-1.4,0.2-2
	c-2-2.2-4.8-3.7-8-3.7c-5.9,0-10.9,5.1-10.9,11.1c0,6.1,5,11.1,10.9,11.1c3.3,0,6.4-1.6,8.4-4.2C78.1,402,78,401,77.3,400.7"/>
</svg>
